<?xml version="1.0" standalone="no"?>
<!DOCTYPE svg PUBLIC "-//W3C//DTD SVG 20010904//EN"
 "http://www.w3.org/TR/2001/REC-SVG-20010904/DTD/svg10.dtd">
<svg version="1.0" xmlns="http://www.w3.org/2000/svg"
 width="633.000000pt" height="633.000000pt" viewBox="0 0 633.000000 633.000000"
 preserveAspectRatio="xMidYMid meet">
<metadata>
Created by potrace 1.11, written by Peter Selinger 2001-2013
</metadata>
<g transform="translate(0.000000,633.000000) scale(0.100000,-0.100000)"
fill="#000000" stroke="none">
<path d="M1825 3898 c-112 -58 -155 -154 -129 -287 8 -36 20 -38 77 -12 55 25
94 62 113 107 26 61 19 215 -9 214 -7 -1 -30 -10 -52 -22z"/>
<path d="M4091 3853 c-1 -6 -9 -12 -18 -11 -10 0 -29 -3 -43 -7 -14 -3 -30 -7
-36 -9 -7 -1 -19 -8 -28 -15 -9 -7 -16 -10 -16 -5 0 5 -4 3 -9 -5 -5 -7 -37
-25 -72 -40 -35 -15 -64 -31 -65 -36 0 -6 -6 -29 -13 -53 -6 -23 -9 -47 -6
-52 3 -6 2 -10 -4 -10 -5 0 -8 -9 -6 -20 5 -28 -2 -25 -19 8 -11 22 -22 77
-25 125 -1 4 -11 2 -23 -5 -13 -7 -27 -13 -33 -14 -31 -2 -75 -17 -75 -25 0
-6 -4 -8 -8 -5 -5 3 -17 -7 -28 -21 -10 -15 -24 -32 -31 -38 -7 -7 -9 -15 -6
-19 4 -3 1 -6 -6 -6 -7 0 -10 -4 -7 -9 3 -5 -1 -14 -9 -21 -8 -7 -12 -16 -9
-21 3 -5 -2 -12 -10 -15 -9 -3 -13 -11 -10 -16 4 -6 3 -13 -2 -17 -7 -5 -44
-73 -49 -91 -1 -3 -21 -45 -45 -95 -55 -116 -84 -179 -86 -185 0 -3 -10 -25
-22 -50 -18 -39 -19 -48 -7 -76 l13 -31 -39 -13 c-21 -7 -39 -17 -39 -22 0 -5
-4 -7 -8 -4 -5 3 -30 -6 -55 -19 -26 -13 -47 -21 -47 -18 0 3 -7 -1 -17 -8 -9
-8 -19 -13 -22 -13 -14 3 -52 -17 -47 -25 7 -11 46 -3 66 15 8 7 20 13 25 14
6 2 20 6 33 11 13 5 28 9 33 9 5 0 9 5 9 12 0 6 3 9 6 6 3 -4 17 0 31 7 15 8
30 12 35 9 4 -3 8 -1 8 4 0 18 48 20 54 3 9 -26 70 -114 111 -160 111 -126
196 -192 265 -208 29 -6 88 -5 100 2 17 10 110 34 148 37 6 1 12 4 12 7 0 3
12 6 28 7 15 0 43 4 62 8 19 4 46 9 60 11 14 1 25 4 25 5 0 1 20 3 44 5 24 2
46 7 49 9 2 3 14 1 25 -5 13 -7 17 -8 13 -1 -4 7 8 12 31 14 24 2 37 8 36 16
-2 6 1 12 5 12 4 0 7 12 6 28 -1 15 1 31 4 36 6 10 13 83 16 148 2 52 20 55
23 5 4 -55 43 -165 80 -226 2 -2 33 -3 70 -1 154 7 298 5 305 -5 5 -6 8 -5 8
3 0 7 4 10 10 7 10 -6 88 -7 175 -1 43 3 49 6 45 22 -8 33 -5 208 4 239 l9 30
11 -35 c6 -19 29 -77 51 -127 42 -96 47 -101 97 -79 9 4 22 9 30 10 15 3 51
18 112 46 25 11 50 20 55 20 6 0 11 5 11 10 0 6 3 9 8 8 4 -1 18 4 32 12 14 8
31 15 39 16 8 2 17 7 20 12 3 5 16 12 29 16 12 4 22 11 22 16 0 4 11 11 25 14
14 4 25 11 25 17 0 6 5 7 10 4 6 -3 10 -1 10 5 0 6 4 9 9 6 5 -3 14 1 21 9 7
8 19 15 26 15 8 0 14 3 14 8 0 4 17 16 38 27 42 23 54 31 88 63 14 12 29 22
33 22 16 0 81 88 118 161 29 59 38 88 40 142 5 84 -25 158 -72 182 -16 8 -25
15 -20 15 6 0 -26 18 -69 40 -44 21 -84 37 -88 34 -4 -3 -8 -1 -8 3 0 7 -133
52 -172 59 -5 1 -9 2 -10 4 -2 1 -19 4 -38 7 -19 2 -36 8 -38 13 -2 5 -10 6
-18 3 -8 -3 -21 0 -29 7 -12 10 -15 10 -15 0 0 -8 -4 -9 -12 -3 -13 10 -48
-16 -48 -34 0 -5 -6 -15 -13 -24 -8 -8 -13 -23 -11 -32 1 -10 -5 -17 -14 -17
-15 0 -15 -2 -2 -10 8 -5 10 -10 5 -10 -9 0 -27 -41 -40 -90 -2 -8 -4 -15 -5
-15 -1 0 -3 -7 -5 -15 -7 -32 -16 -76 -19 -88 -1 -7 -6 -11 -12 -10 -5 2 -8 6
-7 10 2 4 5 62 7 130 2 68 9 145 16 172 6 27 7 53 2 58 -4 4 -37 10 -73 13
-35 3 -84 8 -109 11 -25 3 -70 7 -100 9 -30 2 -55 4 -55 5 0 1 -24 3 -53 4
-28 2 -55 6 -58 9 -4 3 -14 2 -24 -3 -10 -5 -20 -6 -24 -2 -4 3 -28 7 -52 7
-35 1 -51 -4 -67 -21 -12 -13 -22 -27 -23 -31 0 -4 -4 -15 -7 -23 -8 -20 -15
-66 -16 -111 -1 -36 -2 -37 -52 -30 -3 1 -6 7 -7 14 -2 16 -8 57 -18 109 -4
24 -7 57 -7 74 l0 31 -58 -1 c-33 -1 -59 2 -59 6 0 5 -9 4 -19 -2 -14 -7 -22
-7 -26 0 -5 8 -11 7 -21 -1 -8 -6 -14 -7 -14 -2 0 10 -60 10 -78 -1 -7 -4 -12
-3 -12 2 0 10 -30 9 -47 -1 -6 -4 -14 -3 -18 3 -4 6 -11 7 -17 4 -17 -11 -98
-10 -102 1 -3 6 -5 5 -5 -2z m-326 -432 c3 -5 1 -12 -5 -16 -5 -3 -10 1 -10 9
0 18 6 21 15 7z"/>
<path d="M1507 3654 c-42 -13 -46 -17 -37 -34 15 -28 72 -69 107 -76 35 -7
103 19 103 39 0 18 -65 77 -85 77 -7 0 -19 2 -27 4 -7 3 -34 -2 -61 -10z"/>
<path d="M190 3564 c0 -5 5 -27 10 -49 12 -46 14 -290 4 -381 -5 -56 -4 -63
14 -73 26 -14 61 -14 101 0 27 10 31 16 31 47 1 47 15 111 29 125 7 7 22 -15
50 -74 25 -56 49 -92 67 -104 34 -22 123 -33 133 -17 4 7 24 14 44 16 51 7 54
10 62 59 12 70 19 77 80 77 51 0 55 -2 61 -27 21 -95 24 -101 59 -118 20 -9
55 -17 78 -18 34 -2 41 1 39 15 -2 14 7 17 45 20 l48 3 5 107 c3 58 8 109 12
113 5 6 31 -67 64 -187 7 -23 49 -34 78 -20 17 7 29 32 50 106 45 152 57 155
54 13 l-3 -119 30 -24 c32 -25 77 -38 116 -32 19 2 23 8 21 26 -3 20 0 22 25
15 41 -10 102 -8 114 4 6 6 15 30 20 54 14 61 24 69 85 69 l53 0 7 -50 c4 -28
16 -62 27 -76 18 -23 25 -25 74 -21 30 2 56 7 59 9 2 3 -7 50 -21 104 -26 102
-76 357 -70 362 4 4 68 -112 101 -183 23 -51 28 -76 30 -164 3 -70 8 -107 16
-113 18 -11 91 -10 121 1 23 9 25 16 29 93 5 92 16 118 115 286 31 51 53 95
50 98 -12 12 -81 22 -113 17 -41 -7 -43 -10 -79 -96 -42 -101 -47 -101 -85 -1
-29 76 -36 88 -67 100 -48 21 -128 15 -127 -8 1 -14 -2 -15 -15 -8 -31 16
-116 22 -157 11 -38 -10 -42 -15 -48 -51 -3 -22 -18 -76 -32 -120 -24 -77 -26
-80 -56 -80 -29 0 -30 -1 -23 -32 3 -18 7 -44 7 -58 0 -29 -40 -126 -49 -117
-8 8 -6 318 2 379 6 40 4 48 -14 58 -32 17 -148 15 -175 -4 -15 -9 -35 -44
-52 -88 -15 -40 -31 -77 -34 -81 -4 -5 -20 30 -35 78 -33 104 -51 117 -153
113 l-67 -3 3 -170 c1 -93 -2 -188 -6 -210 -7 -39 -9 -37 -30 64 -12 57 -30
147 -39 199 -21 117 -32 127 -139 127 -42 -1 -78 -6 -87 -13 -8 -7 -17 -34
-21 -60 -4 -26 -17 -76 -29 -112 -19 -54 -27 -66 -47 -68 -37 -5 -43 -16 -27
-54 13 -30 12 -39 -2 -75 -9 -23 -18 -44 -22 -47 -3 -3 -27 39 -53 93 -57 114
-56 129 5 196 39 42 40 46 29 79 -6 19 -18 40 -26 47 -24 19 -76 -14 -132 -83
l-47 -58 -5 61 c-4 53 -9 65 -32 82 -28 21 -138 37 -138 21z m655 -221 c7 -43
7 -43 -24 -43 -36 0 -39 12 -16 67 18 43 30 36 40 -24z m990 20 c11 -65 11
-68 -14 -71 -35 -5 -40 8 -25 61 17 57 31 60 39 10z"/>
<path d="M2474 3550 c-27 -9 -32 -16 -38 -52 -4 -24 -18 -78 -32 -120 -24 -74
-27 -78 -55 -78 -32 0 -38 -20 -18 -63 9 -20 6 -36 -16 -91 -15 -37 -25 -69
-22 -72 10 -11 65 -21 97 -19 40 3 56 22 65 75 9 51 24 62 82 58 47 -3 48 -4
57 -43 18 -86 40 -107 126 -121 36 -6 42 -4 46 13 5 16 14 21 45 21 21 1 43 4
49 7 6 3 10 51 10 111 0 57 4 104 8 104 5 0 26 -43 47 -95 21 -53 47 -102 56
-111 18 -17 126 -23 149 -9 7 5 9 21 5 47 -9 52 -9 284 0 362 8 66 1 76 -53
76 -67 0 -72 -8 -72 -128 -1 -104 -1 -106 -17 -77 -9 16 -29 61 -45 99 -40 99
-49 106 -122 106 -34 0 -66 -4 -73 -8 -9 -5 -9 -28 -1 -89 11 -88 2 -321 -12
-306 -7 7 -51 212 -74 345 -4 22 -15 42 -26 48 -28 15 -130 21 -166 10z m80
-172 c3 -13 6 -35 6 -50 0 -23 -4 -28 -25 -28 -28 0 -32 17 -14 69 13 37 24
40 33 9z"/>
<path d="M4397 2613 c-14 -13 -7 -31 11 -29 20 3 30 36 9 36 -7 0 -17 -3 -20
-7z"/>
</g>
</svg>
